<svg width="162" height="22" viewBox="0 0 162 22" fill="none" xmlns="http://www.w3.org/2000/svg">
<g clip-path="url(#clip0)">
<path d="M0 22.3205H20.3888L20.5511 16.3256H9.14918V14.0423H20.1122V8.01756H9.14918V6.01928H20.6654V0H0V22.3205Z" fill="#322635"/>
<path d="M68.0261 4.36852V0H48.9671V4.33594H61.2387L48.342 18.2696V22.3205H69.0633V17.9764H55.3874L68.0261 4.36852Z" fill="#322635"/>
<path d="M86.8035 0C84.6625 3.42368 81.8592 7.72433 80.7049 9.8828C79.5533 7.72433 76.7474 3.42097 74.6064 0H69.1567L78.1969 13.5726C78.2368 13.635 78.2713 13.692 78.2979 13.749C78.3192 13.7898 78.3378 13.8305 78.3485 13.8685C78.3697 13.9282 78.3777 14.0015 78.3857 14.0748C78.391 14.1291 78.399 14.1753 78.399 14.2513V22.3177H83.0082V14.2513C83.0082 14.1753 83.0162 14.1319 83.0215 14.0748C83.0294 14.0042 83.0374 13.9309 83.0587 13.8685C83.072 13.8278 83.0906 13.787 83.1119 13.749C83.1385 13.692 83.1731 13.6323 83.213 13.5726L92.2531 0H86.8035V0Z" fill="#322635"/>
<path d="M121.714 2.95073e-05C120.871 2.98387 119.575 7.42027 118.501 11.3435C117.645 14.3192 116.916 17.0071 116.599 18.5683C115.879 14.9545 112.844 5.22922 111.219 -0.00268555H107.666C106.04 5.22922 103.006 14.9518 102.285 18.5683C101.969 17.0071 101.24 14.3219 100.386 11.349C99.3116 7.4257 98.0164 2.98387 97.1706 -0.00268555H93.3779L99.9978 22.3178H104.378C105.767 17.713 108.53 8.49 109.445 4.81654C110.36 8.49 113.123 17.713 114.511 22.3178H118.889L125.509 -0.00268555H121.714V2.95073e-05Z" fill="#322635"/>
<path d="M159.055 0C156.478 3.77393 152.581 9.20946 151.419 11.1942C150.257 9.20946 146.361 3.77393 143.783 0H140.839L150.002 13.2006C150.097 13.3635 150.148 13.4612 150.148 13.7165V22.3177H152.688V13.7165C152.688 13.4612 152.741 13.3608 152.837 13.2006L161.999 0H159.055V0Z" fill="#322635"/>
<path d="M129.831 12.8965C129.98 12.53 130.121 12.1906 130.264 11.8404L133.969 3.36395L138.14 12.8965H129.831ZM135.956 0H131.985L122.224 22.3205H125.682L128.597 15.655H139.342L141.605 20.8299L142.251 22.3232H145.714L135.985 0.0624463H135.98L135.953 0.00271505L135.956 0Z" fill="#322635"/>
<path d="M31.6477 13.0051C32.5972 10.1679 33.419 7.48269 33.9323 5.59573L34.2275 4.64003H34.2701L34.5653 5.59573C35.0813 7.48269 35.9004 10.1679 36.8499 13.0051H31.6477ZM38.7117 0H29.7859L29.7806 0.0135753L21.6421 22.3205H28.7699L30.1104 18.2017H38.3846L39.725 22.3205H46.8529L38.7143 0.0135753L38.709 0L38.7117 0Z" fill="#322635"/>
</g>
<defs>
<clipPath id="clip0">
<rect width="162" height="22" fill="white"/>
</clipPath>
</defs>
</svg>
