<?xml version="1.0"?>
<svg xmlns="http://www.w3.org/2000/svg" xmlns:xlink="http://www.w3.org/1999/xlink" xmlns:svgjs="http://svgjs.com/svgjs" version="1.1" width="512" height="512" x="0" y="0" viewBox="0 0 512 512" style="enable-background:new 0 0 512 512" xml:space="preserve" class=""><g>
<path xmlns="http://www.w3.org/2000/svg" style="" d="M469.333,8.533c-18.85,0-34.133,15.283-34.133,34.133v17.067h68.267V42.667  C503.467,23.817,488.184,8.533,469.333,8.533z" fill="#e3e3e3" data-original="#c7c7c7" class=""/>
<path xmlns="http://www.w3.org/2000/svg" style="" d="M435.2,8.533H110.933c-18.85,0-34.133,15.283-34.133,34.133v460.8h324.267  c18.85,0,34.133-15.283,34.133-34.133V42.667c0-18.85,15.283-34.133,34.133-34.133H435.2z" fill="#e0e0e0" data-original="#e0e0e0" class=""/>
<path xmlns="http://www.w3.org/2000/svg" style="" d="M435.2,8.533h-39.936C346.59,185.771,232.866,338.125,76.8,435.2v68.267h324.267  c18.85,0,34.133-15.283,34.133-34.133V42.667c0-18.85,15.283-34.133,34.133-34.133H435.2z" fill="#e3e3e3" data-original="#d9d9d9" class=""/>
<g xmlns="http://www.w3.org/2000/svg">
	<rect x="196.267" y="85.333" style="" width="110.933" height="17.067" fill="#e3e3e3" data-original="#c7c7c7" class=""/>
	<rect x="119.467" y="136.533" style="" width="273.067" height="17.067" fill="#e3e3e3" data-original="#c7c7c7" class=""/>
	<rect x="119.467" y="187.733" style="" width="187.733" height="17.067" fill="#e3e3e3" data-original="#c7c7c7" class=""/>
	<rect x="341.333" y="187.733" style="" width="51.2" height="17.067" fill="#e3e3e3" data-original="#c7c7c7" class=""/>
	<rect x="119.467" y="238.933" style="" width="273.067" height="17.067" fill="#e3e3e3" data-original="#c7c7c7" class=""/>
	<rect x="119.467" y="290.133" style="" width="102.4" height="17.067" fill="#e3e3e3" data-original="#c7c7c7" class=""/>
	<rect x="119.467" y="332.8" style="" width="42.667" height="17.067" fill="#e3e3e3" data-original="#c7c7c7" class=""/>
	<rect x="196.267" y="332.8" style="" width="25.6" height="17.067" fill="#e3e3e3" data-original="#c7c7c7" class=""/>
</g>
<path xmlns="http://www.w3.org/2000/svg" style="" d="M366.933,469.333v-17.067H8.533v17.067c0,18.85,15.283,34.133,34.133,34.133h358.4  C382.217,503.467,366.933,488.184,366.933,469.333z" fill="#ebebeb" data-original="#ebebeb"/>
<polygon xmlns="http://www.w3.org/2000/svg" style="" points="315.733,358.4 315.733,418.133 341.333,401.067 366.933,418.133 366.933,358.4 " fill="#eab339" data-original="#f46b27" class=""/>
<path xmlns="http://www.w3.org/2000/svg" style="" d="M315.733,366.933V384c15.095,11.614,36.105,11.614,51.2,0v-17.067H315.733z" fill="#eab339" data-original="#e65f1c" class=""/>
<circle xmlns="http://www.w3.org/2000/svg" style="" cx="341.333" cy="332.8" r="42.667" fill="#eab339" data-original="#fdb62f" class=""/>
<circle xmlns="http://www.w3.org/2000/svg" style="" cx="341.333" cy="332.8" r="25.6" fill="#eab339" data-original="#ffa83d" class=""/>
<path xmlns="http://www.w3.org/2000/svg" d="M341.333,281.6c-28.279,0.06-51.149,23.04-51.081,51.311c0.034,14.473,6.195,28.262,16.947,37.948v47.275  c0.009,3.149,1.749,6.033,4.523,7.509c2.714,1.391,5.973,1.229,8.533-0.427l21.077-13.909l20.907,13.909  c3.934,2.594,9.225,1.502,11.819-2.432c0.913-1.382,1.399-2.995,1.408-4.651v-47.275c21.018-18.918,22.724-51.285,3.814-72.311  C369.596,287.795,355.806,281.634,341.333,281.6z M358.4,402.176l-12.373-8.533c-2.85-1.877-6.537-1.877-9.387,0l-12.373,8.533  v-21.163c11.034,3.985,23.1,3.985,34.133,0V402.176z M341.333,366.933c-18.85,0-34.133-15.283-34.133-34.133  s15.283-34.133,34.133-34.133s34.133,15.283,34.133,34.133S360.183,366.933,341.333,366.933z" fill="#000000" data-original="#000000" style="" class=""/>
<rect xmlns="http://www.w3.org/2000/svg" x="196.267" y="85.333" width="110.933" height="17.067" fill="#000000" data-original="#000000" style="" class=""/>
<rect xmlns="http://www.w3.org/2000/svg" x="119.467" y="136.533" width="273.067" height="17.067" fill="#000000" data-original="#000000" style="" class=""/>
<rect xmlns="http://www.w3.org/2000/svg" x="119.467" y="187.733" width="187.733" height="17.067" fill="#000000" data-original="#000000" style="" class=""/>
<rect xmlns="http://www.w3.org/2000/svg" x="341.333" y="187.733" width="51.2" height="17.067" fill="#000000" data-original="#000000" style="" class=""/>
<rect xmlns="http://www.w3.org/2000/svg" x="119.467" y="238.933" width="273.067" height="17.067" fill="#000000" data-original="#000000" style="" class=""/>
<rect xmlns="http://www.w3.org/2000/svg" x="119.467" y="290.133" width="102.4" height="17.067" fill="#000000" data-original="#000000" style="" class=""/>
<rect xmlns="http://www.w3.org/2000/svg" x="119.467" y="332.8" width="42.667" height="17.067" fill="#000000" data-original="#000000" style="" class=""/>
<rect xmlns="http://www.w3.org/2000/svg" x="196.267" y="332.8" width="25.6" height="17.067" fill="#000000" data-original="#000000" style="" class=""/>
<path xmlns="http://www.w3.org/2000/svg" d="M469.333,0h-358.4C87.373,0,68.267,19.106,68.267,42.667v401.067H8.533c-4.71,0-8.533,3.823-8.533,8.533v17.067  C0,492.894,19.106,512,42.667,512h358.4c23.561,0,42.667-19.106,42.667-42.667V68.267h59.733c4.71,0,8.533-3.823,8.533-8.533V42.667  C512,19.106,492.894,0,469.333,0z M76.8,494.933H42.667c-14.14,0-25.6-11.46-25.6-25.6V460.8H358.4v8.533  c0,9.233,2.995,18.219,8.533,25.6H76.8z M426.667,469.333c0,14.14-11.46,25.6-25.6,25.6s-25.6-11.46-25.6-25.6v-17.067  c0-4.71-3.823-8.533-8.533-8.533h-281.6V42.667c0-14.14,11.46-25.6,25.6-25.6H435.2l-0.683,1.024l-1.365,2.219  c-0.879,1.434-1.681,2.918-2.389,4.437c0,0.853-0.768,1.707-1.109,2.56c-0.632,1.647-1.169,3.328-1.621,5.035  c0,0.853,0,1.621-0.597,2.389c-0.478,2.62-0.734,5.274-0.768,7.936V469.333z M494.933,51.2h-51.2v-8.533  c0-14.14,11.46-25.6,25.6-25.6c14.14,0,25.6,11.46,25.6,25.6V51.2z" fill="#000000" data-original="#000000" style="" class=""/>
<g xmlns="http://www.w3.org/2000/svg">
</g>
<g xmlns="http://www.w3.org/2000/svg">
</g>
<g xmlns="http://www.w3.org/2000/svg">
</g>
<g xmlns="http://www.w3.org/2000/svg">
</g>
<g xmlns="http://www.w3.org/2000/svg">
</g>
<g xmlns="http://www.w3.org/2000/svg">
</g>
<g xmlns="http://www.w3.org/2000/svg">
</g>
<g xmlns="http://www.w3.org/2000/svg">
</g>
<g xmlns="http://www.w3.org/2000/svg">
</g>
<g xmlns="http://www.w3.org/2000/svg">
</g>
<g xmlns="http://www.w3.org/2000/svg">
</g>
<g xmlns="http://www.w3.org/2000/svg">
</g>
<g xmlns="http://www.w3.org/2000/svg">
</g>
<g xmlns="http://www.w3.org/2000/svg">
</g>
<g xmlns="http://www.w3.org/2000/svg">
</g>
</g></svg>
