<?xml version="1.0"?>
<svg xmlns="http://www.w3.org/2000/svg" xmlns:xlink="http://www.w3.org/1999/xlink" xmlns:svgjs="http://svgjs.com/svgjs" version="1.1" width="512" height="512" x="0" y="0" viewBox="0 0 512 512" style="enable-background:new 0 0 512 512" xml:space="preserve" class=""><g><g xmlns="http://www.w3.org/2000/svg"><g><path d="m256 7.505c-137.244 0-248.495 111.251-248.495 248.495s111.251 248.495 248.495 248.495 248.495-111.251 248.495-248.495-111.251-248.495-248.495-248.495zm-197.179 248.497c-.002-108.948 88.232-197.182 197.18-197.182 45.054 0 86.578 15.112 119.781 40.544l-272.427 272.428c-2.117 2.117-5.637 1.847-7.389-.582-23.374-32.407-37.145-72.199-37.145-115.208zm197.177 197.177c-43.009 0-82.801-13.771-115.208-37.145-2.429-1.752-2.699-5.271-.582-7.389l272.427-272.427c25.432 33.203 40.543 74.726 40.544 119.78.002 108.948-88.233 197.183-197.181 197.181z" fill="#3d424a" data-original="#fd8087" style="" class=""/></g><g><path d="m379.192 40.149c63.706 44.984 105.301 119.192 105.301 203.11 0 137.244-111.251 248.495-248.495 248.495-44.835 0-86.879-11.871-123.192-32.643 40.474 28.593 89.869 45.385 143.194 45.385 137.244 0 248.495-111.251 248.495-248.495 0-92.42-50.445-173.048-125.303-215.852z" fill="#3d424a" data-original="#fe646f" style="" class=""/></g><g><g><path d="m302.043 316.429h-170.243c-9.371 0-16.967-7.596-16.967-16.967v-6.352c0-9.371 7.596-16.967 16.967-16.967h170.243c9.371 0 16.967 7.596 16.967 16.967v6.352c0 9.371-7.597 16.967-16.967 16.967z" fill="#eab339" data-original="#fddeb0" style="" class=""/></g><g><path d="m169.313 293.114v6.351c0 9.371 7.591 16.962 16.962 16.962h21.392c-9.371 0-16.972-7.591-16.972-16.962v-6.351c0-9.371 7.601-16.972 16.972-16.972h-21.392c-9.371 0-16.962 7.601-16.962 16.972z" fill="#eab339" data-original="#fccd7f" style="" class=""/></g><g><path d="m302.043 235.857h-170.243c-9.371 0-16.967-7.596-16.967-16.967v-6.352c0-9.371 7.596-16.967 16.967-16.967h170.243c9.371 0 16.967 7.596 16.967 16.967v6.352c0 9.371-7.597 16.967-16.967 16.967z" fill="#eab339" data-original="#fddeb0" style="" class=""/></g><g><path d="m319.006 212.536v6.351c0 9.371-7.591 16.972-16.962 16.972h-21.392c9.371 0 16.972-7.601 16.972-16.972v-6.351c0-9.371-7.601-16.962-16.972-16.962h21.392c9.371 0 16.962 7.591 16.962 16.962z" fill="#eab339" data-original="#fccd7f" style="" class=""/></g><g><path d="m302.043 356.715h-170.243c-9.371 0-16.967-7.596-16.967-16.967v-6.352c0-9.371 7.596-16.967 16.967-16.967h170.243c9.371 0 16.967 7.596 16.967 16.967v6.352c0 9.371-7.597 16.967-16.967 16.967z" fill="#fece85" data-original="#fece85" style=""/></g><g><path d="m169.313 333.398v6.351c0 9.371 7.591 16.962 16.962 16.962h21.392c-9.371 0-16.972-7.591-16.972-16.962v-6.351c0-9.371 7.601-16.972 16.972-16.972h-21.392c-9.371 0-16.962 7.601-16.962 16.972z" fill="#e9b665" data-original="#e9b665" style=""/></g><g><path d="m302.043 276.143h-170.243c-9.371 0-16.967-7.596-16.967-16.967v-6.352c0-9.371 7.596-16.967 16.967-16.967h170.243c9.371 0 16.967 7.596 16.967 16.967v6.352c0 9.371-7.597 16.967-16.967 16.967z" fill="#fece85" data-original="#fece85" style=""/></g><g><path d="m319.006 252.82v6.36c0 9.371-7.591 16.962-16.962 16.962h-21.392c9.371 0 16.972-7.591 16.972-16.962v-6.36c0-9.371-7.601-16.962-16.972-16.962h21.392c9.371 0 16.962 7.591 16.962 16.962z" fill="#e9b665" data-original="#e9b665" style=""/></g><g><path d="m302.043 195.571h-170.243c-9.371 0-16.967-7.596-16.967-16.967v-6.352c0-9.371 7.596-16.967 16.967-16.967h170.243c9.371 0 16.967 7.596 16.967 16.967v6.352c0 9.371-7.597 16.967-16.967 16.967z" fill="#fece85" data-original="#fece85" style=""/></g><g><path d="m319.006 172.252v6.351c0 9.371-7.591 16.972-16.962 16.972h-21.392c9.371 0 16.972-7.601 16.972-16.972v-6.351c0-9.371-7.601-16.962-16.972-16.962h21.392c9.371 0 16.962 7.591 16.962 16.962z" fill="#e9b665" data-original="#e9b665" style=""/></g><g><path d="m380.2 356.715h-170.243c-9.371 0-16.967-7.596-16.967-16.967v-6.352c0-9.371 7.596-16.967 16.967-16.967h170.243c9.371 0 16.967 7.596 16.967 16.967v6.352c0 9.371-7.596 16.967-16.967 16.967z" fill="#eab339" data-original="#fddeb0" style="" class=""/></g><g><path d="m397.164 333.398v6.351c0 9.371-7.591 16.962-16.962 16.962h-21.392c9.371 0 16.972-7.591 16.972-16.962v-6.351c0-9.371-7.601-16.972-16.972-16.972h21.392c9.371 0 16.962 7.601 16.962 16.972z" fill="#eab339" data-original="#fccd7f" style="" class=""/></g><g><path d="m380.2 316.429h-170.243c-9.371 0-16.967-7.596-16.967-16.967v-6.352c0-9.371 7.596-16.967 16.967-16.967h170.243c9.371 0 16.967 7.596 16.967 16.967v6.352c0 9.371-7.596 16.967-16.967 16.967z" fill="#fbc56d" data-original="#fbc56d" style="" class=""/></g><g><path d="m397.164 293.114v6.351c0 9.371-7.591 16.962-16.962 16.962h-21.392c9.371 0 16.972-7.591 16.972-16.962v-6.351c0-9.371-7.601-16.972-16.972-16.972h21.392c9.371 0 16.962 7.601 16.962 16.972z" fill="#e9b665" data-original="#e9b665" style=""/></g><g><path d="m383.267 98.871c-.143-2.156-1.208-4.147-2.924-5.461-35.948-27.535-78.945-42.09-124.342-42.09-.003 0 .002 0-.001 0-54.692 0-106.104 21.286-144.749 59.932-38.648 38.648-59.932 90.054-59.931 144.75 0 43.263 13.335 84.619 38.562 119.596 2.12 2.939 5.411 4.792 9.028 5.083.333.027.667.04.999.04 3.272 0 6.415-1.292 8.749-3.626l14.472-14.472c2.697 1.026 5.618 1.592 8.67 1.592h42.23l-39.126 39.126c-2.571 2.57-3.877 6.123-3.586 9.748.291 3.617 2.144 6.908 5.084 9.028 34.977 25.228 76.333 38.562 119.596 38.562h.003c54.692 0 106.102-21.286 144.748-59.931 38.648-38.648 59.932-90.055 59.931-144.751 0-45.397-14.554-88.393-42.09-124.341-1.314-1.716-3.305-2.781-5.461-2.924-2.154-.138-4.269.652-5.797 2.181l-80.841 80.841c-.199-6.274-2.769-11.957-6.844-16.184 4.245-4.403 6.864-10.383 6.864-16.967v-6.352c0-3.793-.868-7.387-2.415-10.594l56.99-56.99c1.528-1.527 2.323-3.64 2.181-5.796zm-251.467 250.343c-5.22 0-9.466-4.247-9.466-9.466v-6.352c0-5.22 4.247-9.466 9.466-9.466h55.602c-1.229 2.913-1.913 6.11-1.913 9.466v6.352c0 3.354.68 6.553 1.907 9.466zm0-146.142h170.242c5.22 0 9.466 4.246 9.466 9.466v6.352c0 5.22-4.247 9.466-9.466 9.466h-170.242c-5.22 0-9.466-4.247-9.466-9.466v-6.352c0-5.22 4.246-9.466 9.466-9.466zm-9.466-24.468v-6.352c0-5.22 4.247-9.466 9.466-9.466h170.242c5.22 0 9.466 4.247 9.466 9.466v6.352c0 5.22-4.247 9.466-9.466 9.466h-170.242c-5.22 0-9.466-4.246-9.466-9.466zm9.466 64.754h170.242c5.22 0 9.466 4.246 9.466 9.466v6.352c0 5.22-4.247 9.466-9.466 9.466h-170.242c-5.22 0-9.466-4.246-9.466-9.466v-6.352c0-5.22 4.246-9.466 9.466-9.466zm68.691 90.038c0-5.22 4.247-9.466 9.466-9.466h170.243c5.22 0 9.466 4.246 9.466 9.466v6.352c0 5.22-4.247 9.466-9.466 9.466h-170.243c-5.22 0-9.466-4.247-9.466-9.466zm-68.691-49.752h55.596c-1.227 2.913-1.907 6.112-1.907 9.466v6.352c0 3.356.683 6.553 1.913 9.466h-55.602c-5.22 0-9.466-4.246-9.466-9.466v-6.352c0-5.22 4.246-9.466 9.466-9.466zm201.355-15.002h-8.566c1.231-2.914 1.922-6.109 1.922-9.466v-6.352c0-5.577-1.884-10.716-5.038-14.835l90.279-90.279c22.224 31.841 33.927 69.099 33.927 108.288 0 50.689-19.723 98.328-55.538 134.143-35.814 35.815-83.454 55.538-134.143 55.538-39.053 0-76.423-11.721-108.285-33.93l47.533-47.532h184.954c13.492 0 24.468-10.976 24.468-24.468v-6.352c0-6.584-2.619-12.564-6.864-16.967 4.245-4.403 6.864-10.383 6.864-16.967v-6.352c0-13.492-10.976-24.468-24.468-24.468h-12.722c-4.143 0-7.501 3.358-7.501 7.501s3.358 7.501 7.501 7.501h12.722c5.22 0 9.466 4.247 9.466 9.466v6.352c0 5.22-4.247 9.466-9.466 9.466h-170.243c-5.22 0-9.466-4.246-9.466-9.466v-6.352c0-5.22 4.247-9.466 9.466-9.466h123.197c4.143 0 7.501-3.358 7.501-7.501s-3.358-7.502-7.5-7.502zm-19.395-117.863c-3.482-1.908-7.475-2.994-11.717-2.994h-170.243c-13.492 0-24.468 10.976-24.468 24.468v6.352c0 6.584 2.619 12.564 6.864 16.967-4.245 4.403-6.864 10.383-6.864 16.967v6.352c0 6.584 2.619 12.564 6.864 16.967-4.245 4.403-6.864 10.383-6.864 16.967v6.352c0 6.584 2.619 12.564 6.864 16.967-4.245 4.403-6.864 10.383-6.864 16.967v6.352c0 6.584 2.619 12.564 6.864 16.967-4.245 4.403-6.864 10.383-6.864 16.967v6.352c0 4.957 1.486 9.571 4.029 13.429l-11.11 11.11c-22.209-31.862-33.93-69.232-33.93-108.285 0-50.689 19.723-98.328 55.537-134.143s83.454-55.538 134.142-55.538c39.189 0 76.447 11.703 108.289 33.928z" fill="#000000" data-original="#000000" style="" class=""/><path d="m437.019 74.981c-48.352-48.352-112.639-74.981-181.019-74.981s-132.667 26.629-181.019 74.981-74.981 112.639-74.981 181.019c0 36.106 7.368 71.014 21.9 103.754 1.68 3.787 6.114 5.494 9.898 3.813 3.786-1.68 5.494-6.113 3.813-9.898-13.676-30.812-20.61-63.672-20.61-97.668 0-64.373 25.068-124.893 70.587-170.411 45.519-45.52 106.039-70.589 170.412-70.589s124.893 25.069 170.411 70.588c45.519 45.518 70.588 106.038 70.588 170.411s-25.068 124.893-70.587 170.411c-45.519 45.519-106.039 70.588-170.412 70.588-41.68 0-82.752-10.807-118.777-31.253-34.944-19.833-64.655-48.354-85.918-82.482-2.191-3.516-6.818-4.591-10.333-2.399-3.516 2.191-4.59 6.817-2.4 10.333 22.582 36.242 54.134 66.532 91.246 87.595 38.278 21.724 81.911 33.207 126.182 33.207 68.38 0 132.667-26.629 181.019-74.981s74.981-112.639 74.981-181.019-26.629-132.667-74.981-181.019z" fill="#000000" data-original="#000000" style="" class=""/></g></g></g></g></svg>
